<svg width="138" height="138" viewBox="0 0 138 138" fill="none" xmlns="http://www.w3.org/2000/svg">
<circle cx="69.0433" cy="69.119" r="68.2669" fill="white"/>
<path d="M79.0558 27.5898C73.4732 27.5898 68.1193 29.8075 64.1719 33.7549C60.2244 37.7024 58.0068 43.0563 58.0068 48.6388V60.358H46.7428C46.1772 60.358 45.7188 60.8164 45.7188 61.382V76.8558C45.7188 77.4213 46.1772 77.8798 46.7428 77.8798H58.0068V109.624C58.0068 110.189 58.4653 110.648 59.0308 110.648H74.5046C75.0702 110.648 75.5286 110.189 75.5286 109.624V77.8798H86.8924C87.3623 77.8798 87.7719 77.56 87.8859 77.1042L91.7543 61.6303C91.9159 60.984 91.4271 60.358 90.7609 60.358H75.5286V48.6388C75.5286 47.7034 75.9002 46.8062 76.5617 46.1448C77.2232 45.4833 78.1203 45.1117 79.0558 45.1117H90.8887C91.4542 45.1117 91.9127 44.6532 91.9127 44.0877V28.6138C91.9127 28.0483 91.4542 27.5898 90.8887 27.5898H79.0558Z" fill="#67BD50"/>
</svg>
