<svg width="137" height="138" viewBox="0 0 137 138" fill="none" xmlns="http://www.w3.org/2000/svg">
<circle cx="68.3382" cy="69.119" r="68.2669" fill="white"/>
<path d="M68.3385 58.4194C61.2692 58.4194 55.5385 64.1502 55.5385 71.2195C55.5385 78.2887 61.2692 84.0195 68.3385 84.0195C75.4078 84.0195 81.1386 78.2887 81.1386 71.2195C81.1386 64.1502 75.4078 58.4194 68.3385 58.4194Z" fill="#67BD50"/>
<path fill-rule="evenodd" clip-rule="evenodd" d="M47.7385 36.094C61.3188 34.5762 75.3583 34.5762 88.9387 36.094C96.4154 36.9297 102.446 42.8208 103.324 50.3238C104.947 64.2069 104.947 78.232 103.324 92.1151C102.446 99.6181 96.4154 105.509 88.9387 106.345C75.3583 107.863 61.3188 107.863 47.7385 106.345C40.2617 105.509 34.2311 99.6181 33.3536 92.1151C31.7298 78.232 31.7298 64.2069 33.3536 50.3238C34.2311 42.8208 40.2617 36.9297 47.7385 36.094ZM88.0309 47.5886C85.8557 47.5886 84.0924 49.3519 84.0924 51.5271C84.0924 53.7022 85.8557 55.4656 88.0309 55.4656C90.206 55.4656 91.9694 53.7022 91.9694 51.5271C91.9694 49.3519 90.206 47.5886 88.0309 47.5886ZM49.6308 71.2195C49.6308 60.8874 58.0065 52.5117 68.3385 52.5117C78.6705 52.5117 87.0463 60.8874 87.0463 71.2195C87.0463 81.5515 78.6705 89.9272 68.3385 89.9272C58.0065 89.9272 49.6308 81.5515 49.6308 71.2195Z" fill="#67BD50"/>
</svg>
