<svg width="138" height="138" viewBox="0 0 138 138" fill="none" xmlns="http://www.w3.org/2000/svg">
<circle cx="69.1907" cy="69.119" r="68.2669" fill="white"/>
<path d="M39.6104 58.7061C47.9967 76.9714 62.9191 91.4935 81.4718 99.3661L84.4457 100.691C91.2497 103.723 99.2481 101.419 103.398 95.2339L107.284 89.4412C108.548 87.5578 108.163 85.0212 106.398 83.5972L93.218 72.9642C91.2821 71.4025 88.4354 71.7662 86.9545 73.7646L82.8771 79.2665C72.4148 74.1056 63.9206 65.6114 58.7597 55.149L64.2615 51.0717C66.2599 49.5907 66.6237 46.7441 65.0619 44.8081L54.4286 31.6276C53.0048 29.8628 50.4689 29.4779 48.5856 30.7407L42.7529 34.6516C36.5286 38.8251 34.2383 46.8896 37.3397 53.7116L39.6069 58.6987L39.6104 58.7061Z" fill="#67BD50"/>
</svg>
